<?xml version="1.0" encoding="UTF-8" standalone="no"?>
<svg
   xmlns:dc="http://purl.org/dc/elements/1.1/"
   xmlns:cc="http://creativecommons.org/ns#"
   xmlns:rdf="http://www.w3.org/1999/02/22-rdf-syntax-ns#"
   xmlns:svg="http://www.w3.org/2000/svg"
   xmlns="http://www.w3.org/2000/svg"
   xmlns:sodipodi="http://sodipodi.sourceforge.net/DTD/sodipodi-0.dtd"
   xmlns:inkscape="http://www.inkscape.org/namespaces/inkscape"
   width="168.8067mm"
   height="114.80812mm"
   viewBox="0 0 168.8067 114.80812"
   version="1.1"
   id="svg5740"
   inkscape:version="1.0.2 (e86c8708, 2021-01-15)"
   sodipodi:docname="DannyHSigWhite.svg">
  <defs
     id="defs5734" />
  <sodipodi:namedview
     id="base"
     pagecolor="#ffffff"
     bordercolor="#666666"
     borderopacity="1.0"
     inkscape:pageopacity="0.0"
     inkscape:pageshadow="2"
     inkscape:zoom="0.44749708"
     inkscape:cx="302.26654"
     inkscape:cy="391.01814"
     inkscape:document-units="mm"
     inkscape:current-layer="layer1"
     inkscape:document-rotation="0"
     showgrid="false"
     inkscape:window-width="1252"
     inkscape:window-height="943"
     inkscape:window-x="0"
     inkscape:window-y="0"
     inkscape:window-maximized="0" />
  <metadata
     id="metadata5737">
    <rdf:RDF>
      <cc:Work
         rdf:about="">
        <dc:format>image/svg+xml</dc:format>
        <dc:type
           rdf:resource="http://purl.org/dc/dcmitype/StillImage" />
        <dc:title></dc:title>
      </cc:Work>
    </rdf:RDF>
  </metadata>
  <g
     inkscape:label="Layer 1"
     inkscape:groupmode="layer"
     id="layer1"
     transform="translate(2.4586217,49.343925)">
    <path
       style="fill:#ffffff;fill-opacity:1;stroke-width:0.264583"
       d="M 100.63267,65.41175 C 99.32299,65.35958 95.9297,65.069551 93.09205,64.767239 73.35,62.663989 52.485823,55.868418 33.428508,45.334514 22.975892,39.556848 9.861443,30.9646 -0.372013,23.18929 c -2.080098,-1.580446 -2.491988,-2.309807 -1.73302,-3.068775 0.618378,-0.618379 1.514565,-0.298352 3.694485,1.319303 30.500042,22.633198 54.935103,34.399893 81.713008,39.348879 12.95643,2.394553 27.79334,2.776082 41.59232,1.069538 4.85213,-0.60007 15.7158,-2.380906 19.52643,-3.200884 11.59607,-2.495264 17.10607,-7.056591 18.9693,-15.703295 0.50881,-2.361213 0.31613,-6.475021 -0.41512,-8.863542 -0.94381,-3.082779 -3.35712,-13.814464 -4.10541,-18.256249 -0.20838,-1.236927 -0.46335,-3.294218 -0.56659,-4.571756 -0.15941,-1.9725904 -0.25271,-2.3035504 -0.6188,-2.1951294 -2.91333,0.862793 -11.99092,1.6987764 -20.87647,1.9225794 -7.60989,0.191669 -8.64064,0.0062 -10.88677,-1.9586264 l -1.34389,-1.175602 -0.001,4.1877044 c -0.002,6.350751 -1.068,16.32288 -2.25284,21.067452 -1.34171,5.37275 -3.43762,8.809571 -6.26797,10.278072 -1.57294,0.816107 -5.17003,0.977837 -8.18217,0.367882 -3.63422,-0.735928 -10.91949,-3.64328 -18.02951,-7.195087 l -2.85133,-1.424357 -2.70498,0.778541 c -7.07288,2.035715 -12.68456,2.762385 -21.35809,2.765719 -7.254285,0.0028 -9.978456,-0.23494 -16.536458,-1.443083 -9.620737,-1.772372 -20.202503,-5.686226 -24.473958,-9.052125 -3.465134,-2.730521 -4.113469,-5.619274 -1.840659,-8.201324 2.678465,-3.042896 8.998763,-4.949716 16.373221,-4.939762 4.466738,0.006 11.628877,1.025583 15.052352,2.142751 0.482693,0.157515 0.936533,0.227484 1.008528,0.155485 0.184436,-0.184435 -2.243394,-4.957783 -3.9694,-7.8042264 -2.046021,-3.374191 -10.276679,-15.665777 -12.118266,-18.0972979 -0.847677,-1.119195 -1.541214,-2.1779547 -1.541214,-2.3527967 0,-1.077907 -10.615938,1.6608637 -13.901714,3.5864557 -0.627811,0.3679219 -1.310177,0.6689489 -1.516372,0.6689489 -0.489484,0 -1.250664,-0.8498969 -1.250664,-1.3964309 0,-1.581459 7.602691,-4.4396707 14.948958,-5.6200217 7.284982,-1.170506 20.109884,-1.544833 27.188753,-0.793573 10.203714,1.082889 18.126313,3.35943 25.593233,7.3541597 8.59594,4.5987379 15.75241,11.3681869 18.55688,17.5533203 4.03309,8.894788 -0.0456,16.905715 -11.32856,22.25052 -1.35489,0.641816 -2.46343,1.227503 -2.46343,1.301528 0,0.219154 6.74424,3.357224 10.34286,4.812493 5.12819,2.073822 7.61995,2.726647 10.47752,2.745036 2.16423,0.01392 2.56245,-0.0609 3.61879,-0.679953 1.33527,-0.782518 2.77818,-2.905265 3.63834,-5.352579 1.84567,-5.251283 3.13491,-15.897727 3.1407,-25.9358484 0.002,-4.196104 -0.0438,-4.636283 -0.62534,-5.953125 -0.76939,-1.742242 -5.63671,-16.7108176 -6.88893,-21.1856726 -2.79037,-9.971516 -3.57535,-15.595922 -3.06396,-21.953389 0.56464,-7.019517 1.90636,-10.178087 4.16534,-9.805659 1.16371,0.191855 1.94744,1.766555 3.82403,7.683317 2.83113,8.926374 3.3521,11.176074 3.77711,16.31044 0.47166,5.697913 0.84726,12.535222 1.20703,21.9727296 l 0.28242,7.408333 1.63902,1.674071 c 2.69702,2.754699 2.92502,2.829425 8.51819,2.79186 7.20278,-0.04837 17.93678,-0.928661 21.56354,-1.768409 l 1.45521,-0.336944 -0.0631,-3.429246 c -0.0859,-4.670891 -0.4966,-9.832313 -1.27935,-16.0788266 -1.1642,-9.290435 -1.33424,-21.943256 -0.33487,-24.917693 0.45275,-1.347538 1.48354,-1.922605 2.60992,-1.456043 1.30236,0.539455 3.29855,2.925736 4.46721,5.340189 2.62118,5.415339 3.38742,12.400133 2.66446,24.2881047 -0.51864,8.5282559 -2.04789,14.5483249 -4.28237,16.8580369 l -0.8208,0.848432 0.32116,3.5157034 c 0.41829,4.578982 2.64437,15.40665 4.44955,21.642638 0.85555,2.955488 1.09459,7.769018 0.51989,10.469271 -1.34196,6.305306 -5.02756,11.243193 -10.55453,14.140754 -3.95438,2.07311 -8.03071,3.162696 -18.73156,5.006866 -7.17742,1.236945 -10.68135,1.719802 -16.40417,2.260573 -4.1456,0.391732 -15.32993,0.676627 -19.71146,0.502105 z M 73.64517,35.578552 c 5.63913,-0.852728 9.86439,-1.925111 9.37507,-2.379419 -0.26071,-0.242064 -6.32219,-3.19574 -11.88861,-5.793163 -5.699281,-2.659419 -13.132956,-5.751192 -13.826366,-5.750583 -0.211489,1.85e-4 -0.342582,0.457901 -0.367347,1.282607 -0.0487,1.621928 -0.577594,2.643904 -1.997028,3.858887 -2.614689,2.238079 -7.786314,3.796488 -14.104048,4.250097 -4.362664,0.313238 -5.475303,0.45166 -5.254297,0.653682 0.327816,0.299659 3.251586,1.207215 6.31263,1.959475 4.594699,1.129162 8.950566,1.844448 14.552083,2.389624 2.500937,0.243409 14.678633,-0.09025 17.197913,-0.471207 z m 15.58719,-4.00242 C 99.06451,27.875323 104.18487,21.883508 103.16,15.27809 102.64396,11.952082 101.07362,9.0073536 97.83972,5.3013376 91.62958,-1.8153924 81.31868,-7.6469353 70.337882,-10.252888 c -7.387008,-1.753076 -16.494749,-2.464231 -25.342807,-1.978829 -6.003192,0.329335 -7.200942,0.470641 -7.200942,0.849532 0,0.128735 0.632087,1.096118 1.404638,2.1497387 1.653125,2.25456 9.271939,13.6270519 11.298179,16.8646279 0.774131,1.236927 2.398475,4.2064604 3.609653,6.5989604 l 2.202137,4.350001 3.125637,1.101563 c 4.741889,1.671172 9.927304,3.963194 19.105583,8.444915 4.58391,2.238304 8.46903,4.078904 8.63361,4.090226 0.16457,0.01132 1.09103,-0.27745 2.05879,-0.641715 z M 33.296216,30.260155 c 0,-1.096267 0.857443,-1.383194 4.66765,-1.561944 7.759864,-0.364045 13.917429,-2.052217 15.685915,-4.300482 0.62974,-0.800581 0.757047,-2.902545 0.217789,-3.595891 -0.694013,-0.892317 -8.838179,-2.64609 -14.58981,-3.141778 -5.431033,-0.468062 -10.746647,0.318494 -14.619896,2.163315 -1.746009,0.83162 -3.267898,2.31117 -3.267898,3.176987 0,1.469532 2.070272,3.508697 5.145641,5.068323 1.722641,0.873612 6.236139,2.826346 6.562172,2.83908 0.10914,0.0043 0.198437,-0.287163 0.198437,-0.64761 z M 161.78004,0.1234366 c 1.81172,-6.948585 2.14435,-22.3585706 0.61464,-28.4745856 -0.63371,-2.533658 -2.52859,-6.762487 -3.35879,-7.495841 -0.54567,-0.482016 -0.54926,-0.477035 -0.73621,1.019218 -0.10332,0.82698 -0.1213,4.795421 -0.0399,8.818757 0.11398,5.636987 0.30255,8.498768 0.82198,12.474532 0.37074,2.837656 0.80316,6.9453116 0.96094,9.1281236 0.15778,2.182813 0.35134,4.856268 0.43014,5.94101 l 0.14327,1.972259 0.37087,-0.882046 c 0.20398,-0.485127 0.56088,-1.610768 0.7931,-2.501427 z m -40.40191,-9.4245869 c -0.38118,-8.6154707 -1.03146,-17.7286007 -1.43891,-20.1651617 -0.21207,-1.268185 -1.17218,-4.84006 -2.13358,-7.937501 -0.96139,-3.097441 -1.92363,-6.212061 -2.13831,-6.921378 -0.23763,-0.785158 -0.48556,-1.194431 -0.63378,-1.046214 -0.61966,0.619661 -1.08833,5.789197 -0.95537,10.537964 0.14589,5.210778 0.36213,6.563818 2.17766,13.626041 1.03337,4.019704 5.14075,17.3067496 5.29513,17.1293276 0.0305,-0.03504 -0.0473,-2.385422 -0.17284,-5.2230779 z"
       id="path5794" />
  </g>
</svg>
