<?xml version="1.0" encoding="UTF-8" standalone="no"?>
<svg
   xmlns:dc="http://purl.org/dc/elements/1.1/"
   xmlns:cc="http://creativecommons.org/ns#"
   xmlns:rdf="http://www.w3.org/1999/02/22-rdf-syntax-ns#"
   xmlns:svg="http://www.w3.org/2000/svg"
   xmlns="http://www.w3.org/2000/svg"
   xmlns:sodipodi="http://sodipodi.sourceforge.net/DTD/sodipodi-0.dtd"
   xmlns:inkscape="http://www.inkscape.org/namespaces/inkscape"
   width="87.465118mm"
   height="10.882674mm"
   viewBox="0 0 87.465118 10.882674"
   version="1.1"
   id="svg8"
   inkscape:version="1.0.2 (e86c8708, 2021-01-15)"
   sodipodi:docname="JamesBSig.svg">
  <defs
     id="defs2" />
  <sodipodi:namedview
     id="base"
     pagecolor="#ffffff"
     bordercolor="#666666"
     borderopacity="1.0"
     inkscape:pageopacity="0.0"
     inkscape:pageshadow="2"
     inkscape:zoom="1.6936613"
     inkscape:cx="169.17314"
     inkscape:cy="33.567571"
     inkscape:document-units="mm"
     inkscape:current-layer="layer1"
     inkscape:document-rotation="0"
     showgrid="false"
     inkscape:window-width="1252"
     inkscape:window-height="943"
     inkscape:window-x="0"
     inkscape:window-y="0"
     inkscape:window-maximized="0" />
  <metadata
     id="metadata5">
    <rdf:RDF>
      <cc:Work
         rdf:about="">
        <dc:format>image/svg+xml</dc:format>
        <dc:type
           rdf:resource="http://purl.org/dc/dcmitype/StillImage" />
        <dc:title></dc:title>
      </cc:Work>
    </rdf:RDF>
  </metadata>
  <g
     inkscape:label="Layer 1"
     inkscape:groupmode="layer"
     id="layer1"
     transform="translate(-8.6007244,-30.706279)">
    <g
       id="g5679"
       transform="translate(0,26.002149)"
       style="fill:#ffffff;fill-opacity:1">
      <path
         style="fill:#ffffff;fill-opacity:1;stroke-width:0.352778"
         d="M 9.0002869,15.174063 C 8.3413854,14.515161 8.4961797,13.630858 9.4737938,12.46903 10.449201,11.309824 12.735064,9.7601372 13.031817,10.05689 c 0.10143,0.10143 -0.132696,0.285067 -0.520281,0.408081 -0.992594,0.315037 -3.2290268,2.880992 -3.2290268,3.704801 0,0.377855 0.2778125,0.84882 0.6173611,1.046589 0.5082017,0.296 0.5206767,0.361477 0.070555,0.370307 -0.300743,0.0059 -0.7373055,-0.179772 -0.9701384,-0.412605 z m 2.4696081,-0.744354 c 1.337815,-1.239845 2.993013,-4.219865 2.445261,-4.402449 -0.313575,-0.1045248 -0.247766,-0.2904164 0.21841,-0.6169383 0.642744,-0.4501959 1.7207,-3.2337601 1.383054,-3.5714068 -0.388705,-0.3887047 -2.910292,0.4053698 -3.656343,1.151421 -0.758526,0.7585265 -0.813879,0.7675371 -0.813879,0.1324913 0,-1.022437 1.332579,-1.6675687 3.780162,-1.830062 1.670744,-0.1109193 2.238503,-0.026106 2.385251,0.3563097 0.129029,0.3362455 0.01984,0.4355888 -0.330853,0.3010157 -0.772198,-0.2963202 -1.596175,2.50835 -0.871625,2.9668552 0.425777,0.2694375 0.417619,0.3204954 -0.05194,0.3250487 -0.320612,0.0031 -0.908289,0.755295 -1.384547,1.7721245 -0.812918,1.735615 -2.957652,4.230499 -3.63676,4.230499 -0.190022,0 0.05019,-0.366709 0.533807,-0.814909 z m 26.975577,0.226946 c -0.129352,-0.129351 -0.235185,-0.399226 -0.235185,-0.599722 0,-0.221052 0.164314,-0.200223 0.417453,0.05292 0.2296,0.229599 0.335434,0.499474 0.235186,0.599722 -0.100248,0.100248 -0.288102,0.07644 -0.417454,-0.05292 z m 11.562102,-0.273238 c -0.376632,-0.279632 -1.04377,-0.420722 -1.482523,-0.313532 -0.962512,0.235144 -0.9303,0.110863 1.044176,-4.028947 1.321079,-2.7698499 2.350749,-3.9054962 3.113578,-3.4340405 0.190757,0.1178931 -0.108067,0.5971201 -0.664052,1.0649496 -0.555984,0.4678295 -1.605597,1.9823491 -2.332474,3.3655999 -1.169519,2.225598 -1.238497,2.488626 -0.599448,2.285799 0.512234,-0.162577 0.830718,-0.02634 1.09564,0.46867 0.205419,0.38383 0.731026,0.766715 1.168016,0.850856 0.722376,0.139093 0.72857,0.157347 0.0682,0.201026 -0.399479,0.02642 -1.034479,-0.180748 -1.411113,-0.460381 z m -9.904585,-0.575514 c 1.184014,-0.931346 1.179926,-1.639318 -0.0126,-2.182671 -0.744213,-0.339086 -0.972711,-0.337497 -1.087731,0.0076 -0.08008,0.240253 -0.315733,0.436824 -0.523664,0.436824 -0.210921,0 -0.143651,-0.272929 0.152165,-0.617362 0.291622,-0.339548 0.625194,-0.885923 0.741272,-1.214166 0.541015,-1.5298697 3.841953,-2.4878881 4.021287,-1.1670833 0.05269,0.3880555 0.006,0.507118 -0.103769,0.2645833 -0.298524,-0.6596379 -1.339708,-0.5330214 -2.38625,0.2901879 -1.162945,0.9147731 -1.175968,1.4871641 -0.04758,2.0910621 1.274214,0.681938 1.113681,1.610534 -0.41778,2.416632 -1.200135,0.631702 -1.357769,0.478664 -0.335351,-0.32557 z m 13.720237,0.174215 c 0.899915,-1.073351 0.765175,-1.744064 -0.669357,-3.331917 -0.706307,-0.7817981 -1.222245,-1.4700283 -1.146528,-1.5294005 0.07572,-0.059373 0.995147,-0.4123643 2.04318,-0.7844267 2.309082,-0.81975 3.013396,-1.703956 1.975044,-2.479504 -1.166968,-0.8716122 -5.840907,-0.11092 -8.202084,1.334905 -1.183869,0.7249212 -1.587701,2.1715855 -0.705555,2.5275393 0.332373,0.1341151 0.335428,0.1847952 0.01242,0.2057872 -0.235709,0.015318 -0.604178,-0.3002946 -0.818822,-0.7013613 -1.111621,-2.0770819 2.973553,-4.2684726 7.957255,-4.2684726 3.66769,0 3.588964,2.9343942 -0.100464,3.7447282 -0.62775,0.1378758 -1.141359,0.3276938 -1.141359,0.4218174 0,0.094124 0.47625,0.5718721 1.058333,1.061663 1.372937,1.155249 1.406458,2.513793 0.09072,3.676732 -0.702261,0.620706 -0.799003,0.654138 -0.352778,0.12191 z m 18.959283,0.183347 c 0,-0.205479 0.15875,-0.275485 0.352778,-0.155569 0.194028,0.119916 0.352778,0.288035 0.352778,0.373598 0,0.08556 -0.15875,0.155569 -0.352778,0.155569 -0.194028,0 -0.352778,-0.168119 -0.352778,-0.373598 z m 1.921274,-0.380037 c 0.604326,-0.475364 0.897156,-0.986655 0.793062,-1.384717 -0.11279,-0.431311 -0.01016,-0.571653 0.324203,-0.443344 0.775874,0.297731 0.569485,1.389637 -0.380295,2.011956 -1.278389,0.837635 -1.853269,0.694186 -0.73697,-0.183895 z M 21.289779,13.672572 c -0.234489,-0.282542 -0.323934,-0.679417 -0.198765,-0.881945 0.410294,-0.663868 -0.74772,-0.38516 -1.40156,0.337325 -1.189852,1.314771 -3.113923,0.475469 -2.318254,-1.01125 0.644379,-1.204034 4.258531,-3.3648199 4.258531,-2.54604 0,0.168191 -0.379187,0.4009721 -0.842639,0.517291 -0.845766,0.212274 -3.037916,2.414784 -3.037916,3.052274 0,0.775861 1.193422,0.242416 2.782012,-1.243524 0.931399,-0.871215 1.784213,-1.493266 1.895142,-1.382338 0.110929,0.110929 -0.03379,0.765256 -0.321587,1.454062 -0.320456,0.76696 -0.396831,1.378816 -0.197049,1.578599 0.422967,0.422967 2.265398,-1.119309 3.26038,-2.729223 0.790333,-1.2787869 1.698183,-1.3746067 1.02014,-0.107672 -0.639093,1.194156 -0.02952,1.200504 1.196236,0.01246 1.344455,-1.3030969 2.006392,-1.4281725 2.006392,-0.379115 0,0.567185 0.146275,0.684545 0.617362,0.495323 0.339548,-0.136386 0.843359,-0.339681 1.119578,-0.451766 0.375847,-0.152512 0.436207,-0.03304 0.239878,0.474815 -0.505496,1.307592 -0.633637,2.535261 -0.286987,2.749503 0.19239,0.118904 1.021614,-0.457156 1.84272,-1.280132 1.907655,-1.912001 3.14245,-2.7257948 4.140366,-2.7287172 1.193604,-0.00349 1.030727,1.2681222 -0.247064,1.9288942 -1.495692,0.773452 -1.810856,0.661089 -0.458491,-0.163464 1.179674,-0.719261 1.510197,-1.4149769 0.672231,-1.4149769 -0.617402,0 -2.148467,1.3676949 -2.67385,2.3885409 -0.823046,1.599219 0.509191,1.984521 2.598815,0.751613 1.595872,-0.941587 1.655134,-0.622843 0.06672,0.358851 -1.467638,0.90705 -2.494397,0.932318 -3.344411,0.0823 -0.634179,-0.63418 -0.677829,-0.633225 -1.59498,0.03487 -1.328993,0.968104 -2.099996,0.576797 -1.918958,-0.973928 0.172507,-1.47764 -0.224755,-1.550347 -1.547374,-0.283198 -1.004829,0.962688 -1.301218,0.646562 -0.608083,-0.648574 0.801128,-1.49692 -0.161238,-1.101856 -1.848815,0.758962 -1.544556,1.703116 -1.734074,1.821697 -1.550482,0.970139 0.257974,-1.196566 0.05418,-1.21061 -1.279731,-0.08819 -1.215295,1.022602 -1.45979,1.066746 -2.039507,0.368231 z m 35.688286,0.09038 c -1.15315,-1.153149 0.56062,-4.1828493 2.342053,-4.1404165 0.870168,0.020726 0.884329,0.044363 0.193756,0.3233853 -1.661421,0.6712892 -3.102931,3.8875862 -1.742373,3.8875862 0.636986,0 2.311008,-2.147414 2.311008,-2.964535 0,-0.332685 0.149267,-0.512629 0.331706,-0.399875 0.204273,0.126246 0.188603,0.615524 -0.04079,1.27355 -0.204872,0.587699 -0.258688,1.179502 -0.119588,1.315119 0.327106,0.318919 3.023193,-2.787821 2.772015,-3.1942343 -0.200328,-0.3241396 0.857405,-1.6744683 1.311638,-1.6744683 0.145789,0 0.182048,0.3174999 0.08057,0.7055554 -0.149793,0.5728024 -0.01083,0.7055555 0.738582,0.7055555 1.097527,0 1.171043,0.3718073 0.240104,1.2142957 -0.927248,0.839149 -1.567112,2.666259 -0.933739,2.666259 0.800524,0 2.387371,-1.480727 2.89893,-2.705064 0.611075,-1.4625047 0.992632,-1.5253781 0.710989,-0.117157 -0.116417,0.582083 -0.08659,1.058333 0.06629,1.058333 0.152876,0 0.734233,-0.47625 1.291904,-1.058333 0.9401,-0.9812532 1.940278,-1.3964965 1.940278,-0.8055448 0,0.1390339 -0.262505,0.9401528 -0.583346,1.7802628 -1.168411,3.059431 0.770353,2.517752 2.899082,-0.809988 0.867318,-1.3558355 1.534269,-1.9802471 2.431425,-2.2763342 1.376825,-0.4543936 1.969453,-0.2597629 1.927765,0.6331182 -0.01714,0.3673009 -0.09623,0.4270833 -0.205786,0.155569 -0.09786,-0.2425347 -0.460798,-0.4409722 -0.806517,-0.4409722 -0.818607,0 -2.487623,1.3189662 -2.487623,1.9658822 0,0.276959 -0.119063,0.470545 -0.264583,0.43019 -0.145521,-0.04035 -0.920595,0.594646 -1.722385,1.411111 -0.801793,0.816466 -1.719587,1.484483 -2.039546,1.484483 -0.823521,0 -1.096871,-0.97935 -0.623439,-2.23362 0.658025,-1.743301 0.113227,-1.594441 -1.719115,0.469731 -1.470402,1.656437 -1.724007,1.822616 -1.733592,1.135967 l -0.01123,-0.804312 -1.032866,0.763633 c -1.970105,1.456561 -2.919448,-0.117368 -1.260189,-2.089285 1.053472,-1.251978 1.088548,-1.4754469 0.231612,-1.4754469 -0.357685,0 -1.328145,0.8038429 -2.15658,1.7863169 -0.963475,1.142626 -1.692874,1.7147 -2.024161,1.587572 -0.284857,-0.109309 -0.857846,0.03935 -1.273309,0.33035 -0.913285,0.63969 -1.379587,0.665125 -1.938951,0.105761 z m 20.936599,-0.01764 c -0.07555,-0.242535 -0.206682,-0.679097 -0.291405,-0.970139 -0.08472,-0.291042 0.158146,-0.974869 0.539704,-1.519617 0.381554,-0.544747 0.610274,-1.073914 0.508261,-1.175926 -0.102009,-0.1020113 0.04761,-0.4500587 0.332482,-0.773438 0.284875,-0.3233797 0.813605,-0.984838 1.174955,-1.4699074 0.842532,-1.1309952 1.31772,-0.7052383 0.539129,0.4830445 -0.323271,0.4933713 -0.485337,1.0627701 -0.360147,1.2653305 0.12519,0.2025604 0.06316,0.3682915 -0.137848,0.3682915 -0.478935,0 -1.330226,1.3351039 -1.630807,2.5576389 -0.325237,1.322828 0.614426,1.306284 1.955137,-0.03442 1.997671,-1.997675 3.244761,-2.8759927 4.083508,-2.8759927 0.602305,0 0.854876,0.1964676 0.854876,0.6649827 0,0.677689 -1.371346,1.805531 -2.19245,1.803143 -0.249361,-7.41e-4 0.06255,-0.315892 0.693145,-0.700371 1.128726,-0.688197 1.518302,-1.4149769 0.758472,-1.4149769 -0.68199,0 -2.786945,2.3714059 -2.786945,3.1397219 0,0.935725 1.200926,0.993668 2.510886,0.121148 1.106346,-0.736898 2.780781,-2.677977 2.780781,-3.2236011 0,-0.2145255 0.15875,-0.3900466 0.352778,-0.3900466 0.499307,0 0.439674,0.4993927 -0.226438,1.8962437 -0.318569,0.668044 -0.478772,1.476369 -0.356012,1.796278 0.19505,0.508296 0.377048,0.464307 1.443065,-0.348781 0.670924,-0.511739 1.399064,-1.473428 1.618093,-2.137088 0.219026,-0.663659 0.544671,-1.2066527 0.72365,-1.2066527 0.428942,0 0.412609,0.5890227 -0.03977,1.4343027 -0.515997,0.964149 -0.01083,0.824335 1.410197,-0.390307 1.098586,-0.9390238 2.129992,-1.3536583 2.129992,-0.8562759 0,0.1032457 -0.238125,0.7576329 -0.529167,1.4541939 -0.985718,2.359156 -0.372431,2.978733 1.359598,1.373542 0.513401,-0.475805 0.933457,-0.728042 0.933457,-0.560527 0,0.544638 -2.194785,2.167821 -2.78107,2.056779 -0.697354,-0.132079 -0.934505,-1.737745 -0.403268,-2.730373 0.659159,-1.231649 -0.207031,-0.808973 -1.636373,0.798504 -1.592545,1.791016 -2.470606,2.423944 -2.129476,1.534977 0.282998,-0.737486 -0.07414,-0.746047 -1.101567,-0.02641 -0.96781,0.677879 -1.826023,0.424588 -1.826023,-0.538929 0,-0.675861 -0.0548,-0.668804 -1.283953,0.165317 -1.544803,1.048333 -2.750661,1.111465 -3.543483,0.185516 -0.581561,-0.679211 -0.596449,-0.679211 -1.550314,0 -1.113599,0.792955 -1.70126,0.868851 -1.89565,0.244825 z m 9.887303,-5.1607516 c -0.109305,-0.1768616 0.03847,-0.4125936 0.3284,-0.5238492 0.289927,-0.1112555 0.527142,-0.057884 0.527142,0.1186032 0,0.4782093 -0.626921,0.7751635 -0.855542,0.405246 z"
         id="path5681" />
    </g>
  </g>
</svg>
